<?xml version="1.0" encoding="UTF-8" standalone="no"?>
<svg
   width="4195.2632"
   height="1937.948"
   viewBox="0 0 1109.9967 512.74876"
   version="1.1"
   id="svg5"
   xmlns="http://www.w3.org/2000/svg"
   xmlns:svg="http://www.w3.org/2000/svg">
  <defs
     id="defs2">
    <clipPath
       clipPathUnits="userSpaceOnUse"
       id="clipPath3037">
      <path
         d="M 0,1984 H 3840 V 0 H 0 Z"
         id="path3035" />
    </clipPath>
  </defs>
  <g
     id="layer1"
     transform="translate(314.04814,39.640265)">
    <g
       id="g3031"
       transform="matrix(0.35277776,0,0,-0.35277778,-436.31163,566.69725)"
       style="fill:#000000;fill-opacity:1">
      <g
         id="g3033"
         clip-path="url(#clipPath3037)"
         style="fill:#000000;fill-opacity:1">
        <g
           id="g3039"
           transform="translate(3225.2422,268.8171)"
           style="fill:#000000;fill-opacity:1">
          <path
             d="m 0,0 h 267.779 l -441.73,636.758 c -30.573,44.205 -73.798,78.937 -139.161,78.937 -67.471,0 -110.695,-37.89 -141.269,-78.937 L -905.599,0 h 257.237 L -483.515,232.709 -324.295,0 h 267.779 l -290.101,425.961 29.288,41.346 z"
             style="fill:#000000;fill-opacity:1;fill-rule:nonzero;stroke:none"
             id="path3041" />
        </g>
        <g
           id="g3043"
           transform="translate(2304.0754,947.1966)"
           style="fill:#000000;fill-opacity:1">
          <path
             d="m 0,0 c -9.145,0 -15.818,7.168 -15.818,16.189 0,8.898 6.673,16.189 15.694,16.189 9.022,0 15.572,-7.291 15.572,-16.312 C 15.448,7.168 8.898,0 0,0 m -0.124,36.456 c -11.616,0 -20.885,-9.021 -20.885,-20.267 0,-11.493 9.269,-20.514 20.885,-20.514 11.741,0 20.762,9.021 20.762,20.514 0,11.246 -9.021,20.267 -20.762,20.267 M -0.989,17.054 h -2.224 v 5.808 c 0.494,0.124 1.359,0.248 2.595,0.248 2.966,0 4.325,-1.236 4.325,-3.09 0,-2.101 -2.101,-2.966 -4.696,-2.966 m 5.562,-1.483 v 0.247 c 2.471,0.742 4.201,2.472 4.201,4.697 0,1.977 -0.865,3.583 -1.977,4.448 -1.483,0.865 -3.213,1.483 -7.044,1.483 -3.337,0 -5.932,-0.247 -7.786,-0.618 V 5.561 h 4.696 v 8.157 h 2.225 c 2.595,0 3.831,-0.989 4.202,-3.214 C 3.707,8.156 4.078,6.303 4.696,5.561 H 9.763 C 9.269,6.303 8.898,7.539 8.28,10.628 7.662,13.347 6.55,14.83 4.573,15.571"
             style="fill:#000000;fill-opacity:1;fill-rule:nonzero;stroke:none"
             id="path3045" />
        </g>
        <g
           id="g3047"
           transform="translate(1369.4177,1170.368)"
           style="fill:#000000;fill-opacity:1">
          <path
             d="m 0,0 h -119.137 v 123.31 h 90.626 v 163.803 h -90.626 v 97.468 H 0 V 548.384 H -292.241 V -163.803 H 0 Z m -515.438,123.31 h 36.658 v -287.113 h 173.105 V 548.384 H -478.78 V 287.113 h -36.658 v 261.271 h -173.105 v -712.187 h 173.105 z M -948.51,-163.803 h 173.105 v 549.402 h 74.333 v 162.785 h -321.772 V 385.599 h 74.334 z M 751.669,-429.911 h 161.922 v 72.236 c 0,134.299 -31.567,170.96 -153.758,170.96 h -64.151 c -122.192,0 -153.758,-36.661 -153.758,-170.96 v -17.296 c 0,-102.983 -3.688,-116.065 109.658,-209.397 98.997,-80.479 94,-65.112 94,-117 l -0.096,-14.436 c 0,-20.347 -0.09,-27.065 -14.274,-27.469 H 720.12 c -18.035,0.315 -16.292,7.122 -16.292,27.469 v 74.271 H 541.924 v -92.584 c 0,-134.298 31.566,-170.96 153.758,-170.96 h 64.151 c 122.191,0 153.758,36.662 153.758,170.96 v 31.54 c 0,107.793 -0.611,119.105 -123.009,218.209 -91.333,73.884 -82.571,59.451 -82.571,110.414 v 2.035 c -0.165,21.398 2.684,23.262 16.292,23.401 h 11.073 c 15.806,-0.199 16.397,-5.016 16.293,-27.47 z M 439.197,-189.803 H 266.092 V -901.99 H 536.95 v 163.803 H 439.197 Z M 39.791,-671.038 c 9.165,133.281 15.274,248.249 20.365,358.129 4.073,-109.88 11.201,-224.848 21.384,-358.129 z M -59.712,-189.803 -143.21,-901.99 H 22.48 l 6.11,83.428 h 64.151 l 6.11,-83.428 h 164.227 l -83.498,712.187 z m -234.662,-160.75 c 0,-50.871 1.019,-100.724 2.037,-155.664 -6.109,53.923 -14.255,105.811 -21.383,155.664 l -21.384,160.75 H -538.757 V -901.99 h 148.667 v 197.378 c 0,51.888 -1.019,100.724 -2.036,156.681 6.109,-54.94 13.237,-104.793 22.401,-156.681 l 35.639,-197.378 h 188.379 v 712.187 H -294.374 Z M -724.34,-901.99 h 173.104 v 712.187 H -724.34 Z m -298.159,0 h 173.105 v 286.94 h 83.498 v 163.802 h -83.498 v 97.643 h 112.009 v 163.802 h -285.114 z"
             style="fill:#000000;fill-opacity:1;fill-rule:nonzero;stroke:none"
             id="path3049" />
        </g>
      </g>
    </g>
  </g>
</svg>
